<?xml version="1.0" standalone="no"?>
<!DOCTYPE svg PUBLIC "-//W3C//DTD SVG 20010904//EN"
 "http://www.w3.org/TR/2001/REC-SVG-20010904/DTD/svg10.dtd">
<svg version="1.0" xmlns="http://www.w3.org/2000/svg"
 width="631.000000pt" height="631.000000pt" viewBox="0 0 631.000000 631.000000"
 preserveAspectRatio="xMidYMid meet">
<metadata>
Created by potrace 1.14, written by Peter Selinger 2001-2017
</metadata>
<g transform="translate(0.000000,631.000000) scale(0.100000,-0.100000)"
fill="#000000" stroke="none">
<path d="M730 3155 l0 -3155 2420 0 2420 0 0 3155 0 3155 -2420 0 -2420 0 0
-3155z m210 3045 l0 -100 -100 0 -100 0 0 100 0 100 100 0 100 0 0 -100z m210
0 l0 -100 -100 0 -100 0 0 100 0 100 100 0 100 0 0 -100z m210 0 l0 -100 -100
0 -100 0 0 100 0 100 100 0 100 0 0 -100z m210 0 l0 -100 -100 0 -100 0 0 100
0 100 100 0 100 0 0 -100z m210 0 l0 -100 -100 0 -100 0 0 100 0 100 100 0
100 0 0 -100z m210 0 l0 -100 -100 0 -100 0 0 100 0 100 100 0 100 0 0 -100z
m210 0 l0 -100 -100 0 -100 0 0 100 0 100 100 0 100 0 0 -100z m2100 0 l0
-100 -100 0 -100 0 0 100 0 100 100 0 100 0 0 -100z m210 0 l0 -100 -100 0
-100 0 0 100 0 100 100 0 100 0 0 -100z m210 0 l0 -100 -100 0 -100 0 0 100 0
100 100 0 100 0 0 -100z m210 0 l0 -100 -100 0 -100 0 0 100 0 100 100 0 100
0 0 -100z m210 0 l0 -100 -100 0 -100 0 0 100 0 100 100 0 100 0 0 -100z m210
0 l0 -100 -100 0 -100 0 0 100 0 100 100 0 100 0 0 -100z m210 0 l0 -100 -100
0 -100 0 0 100 0 100 100 0 100 0 0 -100z m-4620 -210 l0 -100 -100 0 -100 0
0 100 0 100 100 0 100 0 0 -100z m210 0 l0 -100 -100 0 -100 0 0 100 0 100
100 0 100 0 0 -100z m210 0 l0 -100 -100 0 -100 0 0 100 0 100 100 0 100 0 0
-100z m210 0 l0 -100 -100 0 -100 0 0 100 0 100 100 0 100 0 0 -100z m210 0
l0 -100 -100 0 -100 0 0 100 0 100 100 0 100 0 0 -100z m2940 0 l0 -100 -100
0 -100 0 0 100 0 100 100 0 100 0 0 -100z m210 0 l0 -100 -100 0 -100 0 0 100
0 100 100 0 100 0 0 -100z m210 0 l0 -100 -100 0 -100 0 0 100 0 100 100 0
100 0 0 -100z m210 0 l0 -100 -100 0 -100 0 0 100 0 100 100 0 100 0 0 -100z
m210 0 l0 -100 -100 0 -100 0 0 100 0 100 100 0 100 0 0 -100z m-4620 -210 l0
-100 -100 0 -100 0 0 100 0 100 100 0 100 0 0 -100z m210 0 l0 -100 -100 0
-100 0 0 100 0 100 100 0 100 0 0 -100z m210 0 l0 -100 -100 0 -100 0 0 100 0
100 100 0 100 0 0 -100z m210 0 l0 -100 -100 0 -100 0 0 100 0 100 100 0 100
0 0 -100z m3360 0 l0 -100 -100 0 -100 0 0 100 0 100 100 0 100 0 0 -100z
m210 0 l0 -100 -100 0 -100 0 0 100 0 100 100 0 100 0 0 -100z m210 0 l0 -100
-100 0 -100 0 0 100 0 100 100 0 100 0 0 -100z m210 0 l0 -100 -100 0 -100 0
0 100 0 100 100 0 100 0 0 -100z m-4620 -210 l0 -100 -100 0 -100 0 0 100 0
100 100 0 100 0 0 -100z m210 0 l0 -100 -100 0 -100 0 0 100 0 100 100 0 100
0 0 -100z m210 0 l0 -100 -100 0 -100 0 0 100 0 100 100 0 100 0 0 -100z m210
0 l0 -100 -100 0 -100 0 0 100 0 100 100 0 100 0 0 -100z m3360 0 l0 -100
-100 0 -100 0 0 100 0 100 100 0 100 0 0 -100z m210 0 l0 -100 -100 0 -100 0
0 100 0 100 100 0 100 0 0 -100z m210 0 l0 -100 -100 0 -100 0 0 100 0 100
100 0 100 0 0 -100z m210 0 l0 -100 -100 0 -100 0 0 100 0 100 100 0 100 0 0
-100z m-4620 -210 l0 -100 -100 0 -100 0 0 100 0 100 100 0 100 0 0 -100z
m210 0 l0 -100 -100 0 -100 0 0 100 0 100 100 0 100 0 0 -100z m210 0 l0 -100
-100 0 -100 0 0 100 0 100 100 0 100 0 0 -100z m3780 0 l0 -100 -100 0 -100 0
0 100 0 100 100 0 100 0 0 -100z m210 0 l0 -100 -100 0 -100 0 0 100 0 100
100 0 100 0 0 -100z m210 0 l0 -100 -100 0 -100 0 0 100 0 100 100 0 100 0 0
-100z m-4620 -210 l0 -100 -100 0 -100 0 0 100 0 100 100 0 100 0 0 -100z
m210 0 l0 -100 -100 0 -100 0 0 100 0 100 100 0 100 0 0 -100z m210 0 l0 -100
-100 0 -100 0 0 100 0 100 100 0 100 0 0 -100z m3780 0 l0 -100 -100 0 -100 0
0 100 0 100 100 0 100 0 0 -100z m210 0 l0 -100 -100 0 -100 0 0 100 0 100
100 0 100 0 0 -100z m210 0 l0 -100 -100 0 -100 0 0 100 0 100 100 0 100 0 0
-100z m-4620 -210 l0 -100 -100 0 -100 0 0 100 0 100 100 0 100 0 0 -100z
m210 0 l0 -100 -100 0 -100 0 0 100 0 100 100 0 100 0 0 -100z m210 0 l0 -100
-100 0 -100 0 0 100 0 100 100 0 100 0 0 -100z m3780 0 l0 -100 -100 0 -100 0
0 100 0 100 100 0 100 0 0 -100z m210 0 l0 -100 -100 0 -100 0 0 100 0 100
100 0 100 0 0 -100z m210 0 l0 -100 -100 0 -100 0 0 100 0 100 100 0 100 0 0
-100z m-4620 -210 l0 -100 -100 0 -100 0 0 100 0 100 100 0 100 0 0 -100z
m210 0 l0 -100 -100 0 -100 0 0 100 0 100 100 0 100 0 0 -100z m210 0 l0 -100
-100 0 -100 0 0 100 0 100 100 0 100 0 0 -100z m3780 0 l0 -100 -100 0 -100 0
0 100 0 100 100 0 100 0 0 -100z m210 0 l0 -100 -100 0 -100 0 0 100 0 100
100 0 100 0 0 -100z m210 0 l0 -100 -100 0 -100 0 0 100 0 100 100 0 100 0 0
-100z m-4620 -210 l0 -100 -100 0 -100 0 0 100 0 100 100 0 100 0 0 -100z
m210 0 l0 -100 -100 0 -100 0 0 100 0 100 100 0 100 0 0 -100z m210 0 l0 -100
-100 0 -100 0 0 100 0 100 100 0 100 0 0 -100z m210 0 l0 -100 -100 0 -100 0
0 100 0 100 100 0 100 0 0 -100z m3360 0 l0 -100 -100 0 -100 0 0 100 0 100
100 0 100 0 0 -100z m210 0 l0 -100 -100 0 -100 0 0 100 0 100 100 0 100 0 0
-100z m210 0 l0 -100 -100 0 -100 0 0 100 0 100 100 0 100 0 0 -100z m210 0
l0 -100 -100 0 -100 0 0 100 0 100 100 0 100 0 0 -100z m-4620 -210 l0 -100
-100 0 -100 0 0 100 0 100 100 0 100 0 0 -100z m210 0 l0 -100 -100 0 -100 0
0 100 0 100 100 0 100 0 0 -100z m210 0 l0 -100 -100 0 -100 0 0 100 0 100
100 0 100 0 0 -100z m3780 0 l0 -100 -100 0 -100 0 0 100 0 100 100 0 100 0 0
-100z m210 0 l0 -100 -100 0 -100 0 0 100 0 100 100 0 100 0 0 -100z m210 0
l0 -100 -100 0 -100 0 0 100 0 100 100 0 100 0 0 -100z m-4620 -210 l0 -100
-100 0 -100 0 0 100 0 100 100 0 100 0 0 -100z m210 0 l0 -100 -100 0 -100 0
0 100 0 100 100 0 100 0 0 -100z m210 0 l0 -100 -100 0 -100 0 0 100 0 100
100 0 100 0 0 -100z m3780 0 l0 -100 -100 0 -100 0 0 100 0 100 100 0 100 0 0
-100z m210 0 l0 -100 -100 0 -100 0 0 100 0 100 100 0 100 0 0 -100z m210 0
l0 -100 -100 0 -100 0 0 100 0 100 100 0 100 0 0 -100z m-4620 -210 l0 -100
-100 0 -100 0 0 100 0 100 100 0 100 0 0 -100z m210 0 l0 -100 -100 0 -100 0
0 100 0 100 100 0 100 0 0 -100z m210 0 l0 -100 -100 0 -100 0 0 100 0 100
100 0 100 0 0 -100z m3780 0 l0 -100 -100 0 -100 0 0 100 0 100 100 0 100 0 0
-100z m210 0 l0 -100 -100 0 -100 0 0 100 0 100 100 0 100 0 0 -100z m210 0
l0 -100 -100 0 -100 0 0 100 0 100 100 0 100 0 0 -100z m-4620 -210 l0 -100
-100 0 -100 0 0 100 0 100 100 0 100 0 0 -100z m210 0 l0 -100 -100 0 -100 0
0 100 0 100 100 0 100 0 0 -100z m210 0 l0 -100 -100 0 -100 0 0 100 0 100
100 0 100 0 0 -100z m210 0 l0 -100 -100 0 -100 0 0 100 0 100 100 0 100 0 0
-100z m3360 0 l0 -100 -100 0 -100 0 0 100 0 100 100 0 100 0 0 -100z m210 0
l0 -100 -100 0 -100 0 0 100 0 100 100 0 100 0 0 -100z m210 0 l0 -100 -100 0
-100 0 0 100 0 100 100 0 100 0 0 -100z m210 0 l0 -100 -100 0 -100 0 0 100 0
100 100 0 100 0 0 -100z m-4620 -210 l0 -100 -100 0 -100 0 0 100 0 100 100 0
100 0 0 -100z m210 0 l0 -100 -100 0 -100 0 0 100 0 100 100 0 100 0 0 -100z
m210 0 l0 -100 -100 0 -100 0 0 100 0 100 100 0 100 0 0 -100z m3780 0 l0
-100 -100 0 -100 0 0 100 0 100 100 0 100 0 0 -100z m210 0 l0 -100 -100 0
-100 0 0 100 0 100 100 0 100 0 0 -100z m210 0 l0 -100 -100 0 -100 0 0 100 0
100 100 0 100 0 0 -100z m-4620 -210 l0 -100 -100 0 -100 0 0 100 0 100 100 0
100 0 0 -100z m210 0 l0 -100 -100 0 -100 0 0 100 0 100 100 0 100 0 0 -100z
m4200 0 l0 -100 -100 0 -100 0 0 100 0 100 100 0 100 0 0 -100z m210 0 l0
-100 -100 0 -100 0 0 100 0 100 100 0 100 0 0 -100z m-4620 -210 l0 -100 -100
0 -100 0 0 100 0 100 100 0 100 0 0 -100z m4620 0 l0 -100 -100 0 -100 0 0
100 0 100 100 0 100 0 0 -100z m-4620 -210 l0 -100 -100 0 -100 0 0 100 0 100
100 0 100 0 0 -100z m4620 0 l0 -100 -100 0 -100 0 0 100 0 100 100 0 100 0 0
-100z m-4620 -840 l0 -100 -100 0 -100 0 0 100 0 100 100 0 100 0 0 -100z
m4620 0 l0 -100 -100 0 -100 0 0 100 0 100 100 0 100 0 0 -100z m-4620 -210
l0 -100 -100 0 -100 0 0 100 0 100 100 0 100 0 0 -100z m210 0 l0 -100 -100 0
-100 0 0 100 0 100 100 0 100 0 0 -100z m4200 0 l0 -100 -100 0 -100 0 0 100
0 100 100 0 100 0 0 -100z m210 0 l0 -100 -100 0 -100 0 0 100 0 100 100 0
100 0 0 -100z m-4620 -210 l0 -100 -100 0 -100 0 0 100 0 100 100 0 100 0 0
-100z m210 0 l0 -100 -100 0 -100 0 0 100 0 100 100 0 100 0 0 -100z m210 0
l0 -100 -100 0 -100 0 0 100 0 100 100 0 100 0 0 -100z m3780 0 l0 -100 -100
0 -100 0 0 100 0 100 100 0 100 0 0 -100z m210 0 l0 -100 -100 0 -100 0 0 100
0 100 100 0 100 0 0 -100z m210 0 l0 -100 -100 0 -100 0 0 100 0 100 100 0
100 0 0 -100z m-4620 -210 l0 -100 -100 0 -100 0 0 100 0 100 100 0 100 0 0
-100z m210 0 l0 -100 -100 0 -100 0 0 100 0 100 100 0 100 0 0 -100z m210 0
l0 -100 -100 0 -100 0 0 100 0 100 100 0 100 0 0 -100z m3780 0 l0 -100 -100
0 -100 0 0 100 0 100 100 0 100 0 0 -100z m210 0 l0 -100 -100 0 -100 0 0 100
0 100 100 0 100 0 0 -100z m210 0 l0 -100 -100 0 -100 0 0 100 0 100 100 0
100 0 0 -100z m-4620 -210 l0 -100 -100 0 -100 0 0 100 0 100 100 0 100 0 0
-100z m210 0 l0 -100 -100 0 -100 0 0 100 0 100 100 0 100 0 0 -100z m4200 0
l0 -100 -100 0 -100 0 0 100 0 100 100 0 100 0 0 -100z m210 0 l0 -100 -100 0
-100 0 0 100 0 100 100 0 100 0 0 -100z m-4620 -210 l0 -100 -100 0 -100 0 0
100 0 100 100 0 100 0 0 -100z m210 0 l0 -100 -100 0 -100 0 0 100 0 100 100
0 100 0 0 -100z m2100 0 l0 -100 -100 0 -100 0 0 100 0 100 100 0 100 0 0
-100z m2100 0 l0 -100 -100 0 -100 0 0 100 0 100 100 0 100 0 0 -100z m210 0
l0 -100 -100 0 -100 0 0 100 0 100 100 0 100 0 0 -100z m-4620 -210 l0 -100
-100 0 -100 0 0 100 0 100 100 0 100 0 0 -100z m210 0 l0 -100 -100 0 -100 0
0 100 0 100 100 0 100 0 0 -100z m210 0 l0 -100 -100 0 -100 0 0 100 0 100
100 0 100 0 0 -100z m1680 0 l0 -100 -100 0 -100 0 0 100 0 100 100 0 100 0 0
-100z m210 0 l0 -100 -100 0 -100 0 0 100 0 100 100 0 100 0 0 -100z m210 0
l0 -100 -100 0 -100 0 0 100 0 100 100 0 100 0 0 -100z m1680 0 l0 -100 -100
0 -100 0 0 100 0 100 100 0 100 0 0 -100z m210 0 l0 -100 -100 0 -100 0 0 100
0 100 100 0 100 0 0 -100z m210 0 l0 -100 -100 0 -100 0 0 100 0 100 100 0
100 0 0 -100z m-4620 -210 l0 -100 -100 0 -100 0 0 100 0 100 100 0 100 0 0
-100z m2100 0 l0 -100 -100 0 -100 0 0 100 0 100 100 0 100 0 0 -100z m210 0
l0 -100 -100 0 -100 0 0 100 0 100 100 0 100 0 0 -100z m210 0 l0 -100 -100 0
-100 0 0 100 0 100 100 0 100 0 0 -100z m2100 0 l0 -100 -100 0 -100 0 0 100
0 100 100 0 100 0 0 -100z m-4620 -210 l0 -100 -100 0 -100 0 0 100 0 100 100
0 100 0 0 -100z m2100 0 l0 -100 -100 0 -100 0 0 100 0 100 100 0 100 0 0
-100z m210 0 l0 -100 -100 0 -100 0 0 100 0 100 100 0 100 0 0 -100z m210 0
l0 -100 -100 0 -100 0 0 100 0 100 100 0 100 0 0 -100z m-2520 -210 l0 -100
-100 0 -100 0 0 100 0 100 100 0 100 0 0 -100z m210 0 l0 -100 -100 0 -100 0
0 100 0 100 100 0 100 0 0 -100z m1470 0 l0 -100 -100 0 -100 0 0 100 0 100
100 0 100 0 0 -100z m210 0 l0 -100 -100 0 -100 0 0 100 0 100 100 0 100 0 0
-100z m210 0 l0 -100 -100 0 -100 0 0 100 0 100 100 0 100 0 0 -100z m210 0
l0 -100 -100 0 -100 0 0 100 0 100 100 0 100 0 0 -100z m210 0 l0 -100 -100 0
-100 0 0 100 0 100 100 0 100 0 0 -100z m210 0 l0 -100 -100 0 -100 0 0 100 0
100 100 0 100 0 0 -100z m210 0 l0 -100 -100 0 -100 0 0 100 0 100 100 0 100
0 0 -100z m1680 0 l0 -100 -100 0 -100 0 0 100 0 100 100 0 100 0 0 -100z"/>
</g>
</svg>
